<?xml version="1.0" encoding="UTF-8" standalone="no"?>
<!-- Generator: Adobe Illustrator 19.2.0, SVG Export Plug-In . SVG Version: 6.00 Build 0)  -->

<svg
   xmlns:dc="http://purl.org/dc/elements/1.1/"
   xmlns:cc="http://creativecommons.org/ns#"
   xmlns:rdf="http://www.w3.org/1999/02/22-rdf-syntax-ns#"
   xmlns:svg="http://www.w3.org/2000/svg"
   xmlns="http://www.w3.org/2000/svg"
   xmlns:xlink="http://www.w3.org/1999/xlink"
   xmlns:sodipodi="http://sodipodi.sourceforge.net/DTD/sodipodi-0.dtd"
   xmlns:inkscape="http://www.inkscape.org/namespaces/inkscape"
   version="1.1"
   id="Layer_1"
   x="0px"
   y="0px"
   viewBox="0 0 250 50"
   style="enable-background:new 0 0 250 50;"
   xml:space="preserve"
   inkscape:version="0.48.4 r9939"
   width="100%"
   height="100%"
   sodipodi:docname="logo.svg"><metadata
     id="metadata92"><rdf:RDF><cc:Work
         rdf:about=""><dc:format>image/svg+xml</dc:format><dc:type
           rdf:resource="http://purl.org/dc/dcmitype/StillImage" /><dc:title></dc:title></cc:Work></rdf:RDF></metadata><defs
     id="defs90" /><sodipodi:namedview
     pagecolor="#ffffff"
     bordercolor="#666666"
     borderopacity="1"
     objecttolerance="10"
     gridtolerance="10"
     guidetolerance="10"
     inkscape:pageopacity="0"
     inkscape:pageshadow="2"
     inkscape:window-width="1301"
     inkscape:window-height="744"
     id="namedview88"
     showgrid="false"
     inkscape:zoom="4.672"
     inkscape:cx="125"
     inkscape:cy="25"
     inkscape:window-x="65"
     inkscape:window-y="24"
     inkscape:window-maximized="1"
     inkscape:current-layer="Layer_1" /><style
     type="text/css"
     id="style3">
	.st0{clip-path:url(#SVGID_2_);}
	.st1{clip-path:url(#SVGID_4_);fill-rule:evenodd;clip-rule:evenodd;fill:#005192;}
	.st2{clip-path:url(#SVGID_4_);fill-rule:evenodd;clip-rule:evenodd;fill:#00B3D4;}
	.st3{clip-path:url(#SVGID_4_);fill-rule:evenodd;clip-rule:evenodd;fill:#808285;}
</style><g
     id="Vector_Smart_Object"><g
       id="g6"><defs
         id="defs8"><rect
           id="SVGID_1_"
           x="27.2"
           y="1.5"
           width="195.7"
           height="46.4" /></defs><clipPath
         id="SVGID_2_"><use
           xlink:href="#SVGID_1_"
           style="overflow:visible;"
           id="use12" /></clipPath><g
         class="st0"
         id="g14"
         clip-path="url(#SVGID_2_)"><defs
           id="defs16"><rect
             id="SVGID_3_"
             x="27.2"
             y="1.5"
             width="195.7"
             height="46.4" /></defs><clipPath
           id="SVGID_4_"><use
             xlink:href="#SVGID_3_"
             style="overflow:visible;"
             id="use20" /></clipPath><path
           class="st1"
           d="M27.2,42.5V5.8c0-2.3,1.3-4.3,3.8-4.3h7.4h15.3c0.5,0,1,0.3,1,0.9v9.6H40.4c-0.7,0-1.4,0.3-1.4,1.6     c0,9.9,0,19.1-0.1,28.9c0,0.7-0.4,0.8-0.9,0.8H28C27.3,43.4,27.2,43,27.2,42.5"
           id="path22"
           clip-path="url(#SVGID_4_)" /><path
           class="st2"
           d="M44.8,16.3l9.8-3.6v29.6c0,0.6,0,0.7-0.5,1l-8.4,4.5c-0.6,0.3-1.4-0.1-1.4-0.7v-15c0-0.1,0-0.2,0.1-0.2     l4-1.7c0.1,0,0.1-0.1,0.1-0.2v-2.4c0-0.1,0-0.1-0.1-0.1l-3.8,1.6c-0.2,0.1-0.3,0-0.3-0.2V17C44.4,16.7,44.5,16.4,44.8,16.3"
           id="path24"
           clip-path="url(#SVGID_4_)" /><path
           class="st1"
           d="M65.5,33.8H63V19.6h2.4v1.6c0.4-0.6,0.9-1.1,1.5-1.4c0.5-0.3,1.2-0.5,1.9-0.5V22c-1.1,0.1-2,0.4-2.5,1     c-0.5,0.6-0.7,1.5-0.7,2.9V33.8z"
           id="path26"
           clip-path="url(#SVGID_4_)" /><path
           class="st1"
           d="M73.6,26.7c0,1.4,0.5,2.6,1.4,3.6s2,1.4,3.4,1.4c1.3,0,2.4-0.5,3.3-1.4c0.9-1,1.3-2.1,1.3-3.6     c0-1.4-0.4-2.6-1.3-3.6c-0.9-0.9-2-1.4-3.3-1.4c-1.3,0-2.4,0.5-3.3,1.4C74,24.1,73.6,25.3,73.6,26.7 M70.9,26.7     c0-1,0.2-2,0.5-2.8c0.3-0.9,0.8-1.7,1.5-2.4c0.7-0.8,1.5-1.4,2.4-1.8c0.9-0.4,1.8-0.6,2.8-0.6c1,0,2,0.2,2.9,0.6     c0.9,0.4,1.7,0.9,2.4,1.6c0.7,0.7,1.2,1.5,1.6,2.4c0.4,0.9,0.6,1.8,0.6,2.8c0,1-0.2,1.9-0.5,2.8c-0.3,0.9-0.8,1.7-1.5,2.4     c-0.7,0.8-1.5,1.4-2.4,1.8c-0.9,0.4-1.9,0.6-2.9,0.6c-1,0-2-0.2-2.9-0.6c-0.9-0.4-1.7-0.9-2.4-1.7c-0.7-0.7-1.2-1.5-1.6-2.4     C71.1,28.6,70.9,27.7,70.9,26.7"
           id="path28"
           clip-path="url(#SVGID_4_)" /><path
           class="st1"
           d="M90.8,26.7c0,1.4,0.5,2.6,1.4,3.6s2,1.4,3.4,1.4c1.3,0,2.4-0.5,3.3-1.4c0.9-1,1.3-2.1,1.3-3.6     c0-1.4-0.4-2.6-1.3-3.6c-0.9-0.9-2-1.4-3.3-1.4c-1.3,0-2.4,0.5-3.3,1.4C91.2,24.1,90.8,25.3,90.8,26.7 M88.1,26.7     c0-1,0.2-2,0.5-2.8c0.3-0.9,0.8-1.7,1.5-2.4c0.7-0.8,1.5-1.4,2.4-1.8c0.9-0.4,1.8-0.6,2.8-0.6c1,0,2,0.2,2.9,0.6     c0.9,0.4,1.7,0.9,2.4,1.6c0.7,0.7,1.2,1.5,1.6,2.4c0.4,0.9,0.6,1.8,0.6,2.8c0,1-0.2,1.9-0.5,2.8c-0.3,0.9-0.8,1.7-1.5,2.4     c-0.7,0.8-1.5,1.4-2.4,1.8c-0.9,0.4-1.9,0.6-2.9,0.6c-1,0-2-0.2-2.9-0.6c-0.9-0.4-1.7-0.9-2.4-1.7c-0.7-0.7-1.2-1.5-1.6-2.4     C88.3,28.6,88.1,27.7,88.1,26.7"
           id="path30"
           clip-path="url(#SVGID_4_)" /><path
           class="st1"
           d="M109.4,33.8h-2.5v-12h-1.7v-2.2h1.6v-0.4c0-1.5,0.4-2.6,1.2-3.3c0.8-0.7,2-1.1,3.6-1.1v2.4h-0.2     c-0.8,0-1.3,0.2-1.6,0.5c-0.3,0.3-0.5,0.9-0.5,1.7v0.2h2.3v2.2h-2.2V33.8z"
           id="path32"
           clip-path="url(#SVGID_4_)" /><path
           class="st1"
           d="M170.7,33.8h-2.5v-12h-1.7v-2.2h1.6v-0.4c0-1.5,0.4-2.6,1.2-3.3c0.8-0.7,2-1.1,3.6-1.1v2.4h-0.2     c-0.8,0-1.3,0.2-1.6,0.5c-0.3,0.3-0.5,0.9-0.5,1.7v0.2h2.3v2.2h-2.2V33.8z"
           id="path34"
           clip-path="url(#SVGID_4_)" /><rect
           x="175.9"
           y="15"
           class="st1"
           width="2.5"
           height="18.8"
           id="rect36"
           clip-path="url(#SVGID_4_)" /><path
           class="st1"
           d="M184.5,26.7c0,1.4,0.5,2.6,1.4,3.6s2,1.4,3.4,1.4c1.3,0,2.4-0.5,3.3-1.4c0.9-1,1.3-2.1,1.3-3.6     c0-1.4-0.4-2.6-1.3-3.6c-0.9-0.9-2-1.4-3.3-1.4c-1.3,0-2.4,0.5-3.3,1.4C184.9,24.1,184.5,25.3,184.5,26.7 M181.8,26.7     c0-1,0.2-2,0.5-2.8c0.3-0.9,0.8-1.7,1.5-2.4c0.7-0.8,1.5-1.4,2.4-1.8c0.9-0.4,1.8-0.6,2.8-0.6c1,0,2,0.2,2.9,0.6     c0.9,0.4,1.7,0.9,2.4,1.6c0.7,0.7,1.2,1.5,1.6,2.4c0.4,0.9,0.6,1.8,0.6,2.8c0,1-0.2,1.9-0.5,2.8c-0.3,0.9-0.8,1.7-1.5,2.4     c-0.7,0.8-1.5,1.4-2.4,1.8c-0.9,0.4-1.9,0.6-2.9,0.6c-1,0-2-0.2-2.9-0.6c-0.9-0.4-1.7-0.9-2.4-1.7c-0.7-0.7-1.2-1.5-1.6-2.4     C182,28.6,181.8,27.7,181.8,26.7"
           id="path38"
           clip-path="url(#SVGID_4_)" /><path
           class="st1"
           d="M201.7,26.7c0,1.4,0.5,2.6,1.4,3.6s2,1.4,3.4,1.4c1.3,0,2.4-0.5,3.3-1.4c0.9-1,1.3-2.1,1.3-3.6     c0-1.4-0.4-2.6-1.3-3.6c-0.9-0.9-2-1.4-3.3-1.4c-1.3,0-2.4,0.5-3.3,1.4C202.1,24.1,201.7,25.3,201.7,26.7 M199,26.7     c0-1,0.2-2,0.5-2.8c0.3-0.9,0.8-1.7,1.5-2.4c0.7-0.8,1.5-1.4,2.4-1.8c0.9-0.4,1.8-0.6,2.8-0.6c1,0,2,0.2,2.9,0.6     c0.9,0.4,1.7,0.9,2.4,1.6c0.7,0.7,1.2,1.5,1.6,2.4c0.4,0.9,0.6,1.8,0.6,2.8c0,1-0.2,1.9-0.5,2.8c-0.3,0.9-0.8,1.7-1.5,2.4     c-0.7,0.8-1.5,1.4-2.4,1.8c-0.9,0.4-1.9,0.6-2.9,0.6c-1,0-2-0.2-2.9-0.6c-0.9-0.4-1.7-0.9-2.4-1.7c-0.7-0.7-1.2-1.5-1.6-2.4     C199.2,28.6,199,27.7,199,26.7"
           id="path40"
           clip-path="url(#SVGID_4_)" /><path
           class="st1"
           d="M219.6,33.8h-2.6V19.6h2.4v1.6c0.4-0.6,0.9-1.1,1.5-1.4c0.5-0.3,1.2-0.5,1.9-0.5V22c-1.1,0.1-2,0.4-2.5,1     c-0.5,0.6-0.7,1.5-0.7,2.9V33.8z"
           id="path42"
           clip-path="url(#SVGID_4_)" /><path
           class="st2"
           d="M116.6,26.6c0,1.4,0.5,2.6,1.4,3.6c1,1,2.1,1.5,3.5,1.5c1.3,0,2.4-0.5,3.3-1.5c1-1,1.4-2.1,1.4-3.4     c0-1.4-0.5-2.6-1.4-3.6c-1-1-2.1-1.5-3.4-1.5c-1.3,0-2.5,0.5-3.4,1.4C117.1,24.1,116.6,25.2,116.6,26.6 M126.1,33.8v-1.7     c-0.7,0.7-1.4,1.2-2.2,1.5c-0.8,0.3-1.7,0.5-2.6,0.5c-2.1,0-3.9-0.7-5.3-2.1c-1.4-1.4-2.1-3.2-2.1-5.4c0-1,0.2-2,0.5-2.8     c0.4-0.9,0.9-1.7,1.5-2.4c0.7-0.7,1.5-1.3,2.3-1.7c0.8-0.4,1.8-0.5,2.9-0.5c1,0,1.9,0.2,2.7,0.5c0.8,0.3,1.6,0.9,2.2,1.6v-1.7     h2.6v14.2H126.1z"
           id="path44"
           clip-path="url(#SVGID_4_)" /><path
           class="st2"
           d="M135.4,33.8h-2.6V19.6h2.5v1.6c0.5-0.6,1.1-1.1,1.8-1.4c0.6-0.3,1.4-0.4,2.2-0.4c1.9,0,3.3,0.5,4.3,1.6     c1,1.1,1.5,2.7,1.5,4.7v8.1h-2.6v-7.5c0-1.5-0.3-2.6-0.8-3.4c-0.6-0.7-1.4-1.1-2.6-1.1c-1.3,0-2.2,0.4-2.8,1.3     c-0.6,0.9-0.9,2.3-0.9,4.3V33.8z"
           id="path46"
           clip-path="url(#SVGID_4_)" /><path
           class="st2"
           d="M151.1,26.6c0,1.4,0.5,2.6,1.4,3.6c1,1,2.1,1.5,3.5,1.5c1.3,0,2.4-0.5,3.3-1.5c1-1,1.4-2.1,1.4-3.4     c0-1.4-0.5-2.6-1.4-3.6c-1-1-2.1-1.5-3.4-1.5c-1.3,0-2.5,0.5-3.4,1.4C151.6,24.1,151.1,25.2,151.1,26.6 M160.7,33.8v-1.7     c-0.7,0.7-1.4,1.2-2.2,1.5c-0.8,0.3-1.7,0.5-2.6,0.5c-2.1,0-3.9-0.7-5.3-2.1c-1.4-1.4-2.1-3.2-2.1-5.4c0-1,0.2-2,0.5-2.8     s0.9-1.7,1.5-2.4c0.7-0.7,1.5-1.3,2.3-1.7c0.8-0.4,1.8-0.5,2.9-0.5c1,0,1.9,0.2,2.7,0.5c0.8,0.3,1.6,0.9,2.3,1.6V15h2.6v18.8     H160.7z"
           id="path48"
           clip-path="url(#SVGID_4_)" /><rect
           x="196.8"
           y="14.2"
           class="st2"
           width="1.5"
           height="1.5"
           id="rect50"
           clip-path="url(#SVGID_4_)" /><path
           class="st2"
           d="M202.6,9.3c-0.4,0-0.8,0.1-1.2,0.2c-0.4,0.2-0.7,0.4-1,0.7c-0.3,0.3-0.6,0.7-0.7,1.1     c-0.2,0.4-0.2,0.9-0.2,1.4c0,0.4,0.2,0.9,0.4,1.4c0.3,0.5,0.7,0.9,1.2,1.2c0.5,0.3,1.1,0.5,1.8,0.4c0.6,0,1.2-0.3,1.8-0.7     c0.6-0.4,0.9-0.9,1.1-1.5H204c-0.4,0.5-0.8,0.8-1.3,0.8c-0.5,0-0.9-0.2-1.2-0.5c-0.3-0.3-0.5-0.7-0.6-1.2c0-0.5,0.1-0.9,0.4-1.3     c0.3-0.4,0.7-0.6,1.2-0.6c0.3,0,0.6,0,0.9,0.1c0.3,0.1,0.5,0.3,0.7,0.6h1.7c-0.1-0.3-0.3-0.7-0.5-1c-0.3-0.3-0.6-0.6-1-0.9     S203.2,9.3,202.6,9.3"
           id="path52"
           clip-path="url(#SVGID_4_)" /><path
           class="st2"
           d="M207.2,10.4c-0.5,0.6-0.8,1.4-0.8,2.1c0,0.9,0.3,1.7,1,2.3c0.6,0.6,1.4,1,2.3,1c0.6,0,1.1-0.1,1.6-0.4     c0.5-0.3,0.9-0.7,1.2-1.2c0.3-0.5,0.4-1,0.4-1.6c0-0.6-0.1-1.1-0.4-1.6c-0.3-0.5-0.7-0.9-1.2-1.2s-1-0.4-1.6-0.4     C208.8,9.4,208,9.7,207.2,10.4 M208.3,11.3c0.3-0.4,0.8-0.5,1.3-0.5c0.3,0,0.6,0.1,0.9,0.2c0.3,0.2,0.5,0.4,0.6,0.7     c0.2,0.3,0.2,0.6,0.2,0.9c0,0.5-0.2,0.9-0.5,1.3c-0.3,0.3-0.7,0.5-1.3,0.5c-0.5,0-0.9-0.2-1.2-0.6c-0.3-0.4-0.5-0.8-0.5-1.2     C207.9,12.1,208,11.7,208.3,11.3"
           id="path54"
           clip-path="url(#SVGID_4_)" /><path
           class="st2"
           d="M213.7,9.6v6.1h1.5v-3.4c0-0.5,0.1-0.8,0.3-1.1c0.2-0.2,0.5-0.4,0.8-0.4c0.3,0,0.6,0.1,0.8,0.4     c0.2,0.2,0.4,0.6,0.4,1v3.5h1.5v-3.4c0-0.4,0.1-0.8,0.4-1.1c0.3-0.3,0.5-0.4,0.9-0.4c0.2,0,0.4,0,0.6,0.1     c0.2,0.1,0.3,0.2,0.4,0.4c0.1,0.2,0.1,0.4,0.1,0.7v3.5h1.5v-3.8c0-0.5-0.1-0.9-0.4-1.3c-0.2-0.4-0.5-0.7-0.9-0.8     c-0.4-0.2-0.8-0.3-1.2-0.3c-0.4,0-0.8,0.1-1.1,0.2c-0.3,0.2-0.6,0.4-0.8,0.7c-0.2-0.3-0.4-0.5-0.8-0.7c-0.3-0.2-0.7-0.2-1-0.2     c-0.3,0-0.6,0.1-0.9,0.2c-0.3,0.1-0.5,0.3-0.6,0.6V9.6H213.7z"
           id="path56"
           clip-path="url(#SVGID_4_)" /></g></g></g></svg>